<?xml version="1.0" encoding="UTF-8"?>
<svg version="1.1" xmlns="http://www.w3.org/2000/svg" viewBox="0 0 292 246" width="24" height="24">
<path d="M0 0 C2.8336665 0.92328173 4.95033427 2.11407027 7.4140625 3.78515625 C8.20425781 4.30980469 8.99445313 4.83445313 9.80859375 5.375 C10.40027344 5.86097656 10.99195313 6.34695312 11.6015625 6.84765625 C11.6015625 7.50765625 11.6015625 8.16765625 11.6015625 8.84765625 C9.59911668 10.62794623 7.59566923 12.27808547 5.4765625 13.91015625 C4.52148804 14.64770142 4.52148804 14.64770142 3.54711914 15.40014648 C-25.83340325 37.79858492 -60.3637981 50.95623193 -97.3984375 49.84765625 C-94.5382644 46.98748315 -91.00658912 46.07020148 -87.2734375 44.72265625 C-86.51933594 44.44550781 -85.76523438 44.16835937 -84.98828125 43.8828125 C-83.12680629 43.19948625 -81.26285148 42.52292236 -79.3984375 41.84765625 C-80.40519531 41.83347656 -81.41195312 41.81929687 -82.44921875 41.8046875 C-103.22844961 41.22171811 -123.22518988 35.3253626 -139.3984375 21.84765625 C-137.73177083 20.18098958 -136.06510417 18.51432292 -134.3984375 16.84765625 C-135.048125 16.37714844 -135.6978125 15.90664062 -136.3671875 15.421875 C-137.2025 14.79925781 -138.0378125 14.17664063 -138.8984375 13.53515625 C-139.73375 12.92027344 -140.5690625 12.30539063 -141.4296875 11.671875 C-142.40421875 10.76888672 -142.40421875 10.76888672 -143.3984375 9.84765625 C-143.3984375 6.84765625 -143.3984375 6.84765625 -141.8671875 5.2421875 C-141.2175 4.72011719 -140.5678125 4.19804687 -139.8984375 3.66015625 C-139.24875 3.13035156 -138.5990625 2.60054687 -137.9296875 2.0546875 C-137.424375 1.65636719 -136.9190625 1.25804687 -136.3984375 0.84765625 C-133.39901058 2.28246184 -130.64000532 3.93950933 -127.8359375 5.72265625 C-115.743425 13.0281771 -103.30224564 14.83474202 -89.3984375 13.84765625 C-84.28028033 12.54055765 -81.23750281 9.71630091 -77.5234375 6.09765625 C-74.52185976 3.37857994 -72.46644468 2.2587852 -68.3984375 1.97265625 C-63.41588635 2.3236476 -60.84406285 4.37236807 -57.48046875 7.92578125 C-51.80937124 13.16064049 -47.14934157 14.50638181 -39.6484375 14.28515625 C-38.85566406 14.27121826 -38.06289062 14.25728027 -37.24609375 14.24291992 C-24.8424004 13.85467218 -12.80947703 10.01187745 -4.06640625 0.88671875 C-2.3984375 -0.15234375 -2.3984375 -0.15234375 0 0 Z " fill="currentColor" transform="translate(200.3984375,138.15234375)"/>
<path d="M0 0 C12.39869775 0 22.7202953 7.15728202 31.6953125 15.08203125 C34.5896948 17.52303556 34.5896948 17.52303556 38 19 C40.47953217 18.22311283 40.47953217 18.22311283 43 17 C56.00426407 13.81768764 68.74302694 14.31432554 81.66015625 17.34375 C84.93223624 17.98668502 87.68149592 18.33563218 91 18 C92.60528105 16.82031268 92.60528105 16.82031268 93.8125 15.0625 C97.49953697 10.99347271 101.75368829 8.69851268 106.5625 6.1875 C107.6613855 5.61044312 107.6613855 5.61044312 108.7824707 5.02172852 C114.38145172 2.15923918 119.57043827 -0.37820951 126 0 C133.36099071 13.00441693 133.43853242 27.68320137 130 42 C129.15775625 44.19805077 128.23108908 45.9854906 127 48 C124.03 47.01 124.03 47.01 121 46 C121.28875 44.99582031 121.5775 43.99164063 121.875 42.95703125 C125.2909689 30.58593107 126.18662909 19.60425613 123 7 C114.64980921 10.4415103 108.13825853 15.42727308 102 22 C101.505 23.485 101.505 23.485 101 25 C105.51478398 24.46884894 108.34666857 22.63379708 112 20 C111.67 21.98 111.34 23.96 111 26 C113.64 25.34 116.28 24.68 119 24 C118.56878732 27.01848877 118.05446182 28.91621258 116.375 31.5 C114.78252449 33.89894021 114.78252449 33.89894021 115.0625 36.5625 C116.17820823 39.46334139 117.75216449 40.89718614 120 43 C120 43.66 120 44.32 120 45 C118.31915565 44.75650314 118.31915565 44.75650314 116.60435486 44.50808716 C111.83548255 43.9154816 107.13069888 43.85936042 102.33032227 43.87060547 C101.39751434 43.86885315 100.46470642 43.86710083 99.50363159 43.86529541 C96.44120383 43.86091901 93.37883453 43.86380025 90.31640625 43.8671875 C88.17463673 43.86651319 86.03286728 43.86554211 83.89109802 43.86428833 C79.41005726 43.86281701 74.92903648 43.86494752 70.44799805 43.86962891 C64.7207737 43.87532238 58.99359626 43.87204599 53.26637363 43.86605644 C48.84559276 43.86243262 44.42482289 43.86359785 40.00404167 43.86618423 C37.89304537 43.86684864 35.78204805 43.86604217 33.67105293 43.86370468 C30.71369935 43.86114858 27.75642034 43.86506038 24.79907227 43.87060547 C23.93697647 43.86858124 23.07488068 43.86655701 22.18666077 43.86447144 C16.7191289 43.88334266 11.42539947 44.31349611 6 45 C7.08352711 42.72885148 8.054467 40.93544652 9.6875 39 C11.19835694 37.13597326 11.19835694 37.13597326 10.875 35.125 C10.14037423 33.34090885 9.30036224 31.60072449 8.4375 29.875 C7 27 7 27 7 25 C9.31 25.33 11.62 25.66 14 26 C14 24.35 14 22.7 14 21 C18.03520597 22.58962659 22.01811282 24.28232318 26 26 C21.65396135 17.56357203 14.35057238 12.16829241 6 8 C4.67212239 7.64555685 3.33927655 7.30858907 2 7 C1.94165579 11.52077862 1.90628748 16.04145953 1.875 20.5625 C1.85824219 21.83931641 1.84148437 23.11613281 1.82421875 24.43164062 C1.79151414 30.72727869 1.92809465 36.05346849 4 42 C4 43.32 4 44.64 4 46 C2.35 46.66 0.7 47.32 -1 48 C-6.91358021 33.77044761 -7.15547512 17.69272615 -1.97265625 3.203125 C-1 1 -1 1 0 0 Z " fill="currentColor" transform="translate(69,63)"/>
<path d="M0 0 C7.01139342 1.75284835 13.16028968 6.66257046 18 12 C19.44671332 14.932527 19.67309946 16.37003845 19.203125 19.578125 C16.61273931 24.79253775 11.66776101 27.76217388 7 31 C5.64455078 32.11761719 5.64455078 32.11761719 4.26171875 33.2578125 C2 35 2 35 0 35 C0 23.45 0 11.9 0 0 Z " fill="currentColor" transform="translate(227,111)"/>
<path d="M0 0 C4.37759759 11.54330792 4.30947409 23.38392787 0 35 C-1.60546875 37.33984375 -1.60546875 37.33984375 -3 39 C-3.6496875 37.8553125 -3.6496875 37.8553125 -4.3125 36.6875 C-5.7920249 34.01605122 -5.7920249 34.01605122 -7.75 32.5625 C-9 31 -9 31 -8.875 28.125 C-7.99328693 24.97602475 -6.74983908 22.73887856 -5 20 C-5 19.34 -5 18.68 -5 18 C-7.31 18.33 -9.62 18.66 -12 19 C-12 17.35 -12 15.7 -12 14 C-12.886875 14.845625 -13.77375 15.69125 -14.6875 16.5625 C-17.6008348 19.02603251 -17.6008348 19.02603251 -20.875 18.8125 C-21.57625 18.544375 -22.2775 18.27625 -23 18 C-18.90861792 10.46813754 -9.22505319 0 0 0 Z " fill="currentColor" transform="translate(192,70)"/>
<path d="M0 0 C9.47781599 1.08514125 16.03693106 7.71633504 22.6015625 14.203125 C24 16 24 16 24 19 C19.00088076 18.52389341 16.02167317 16.96837781 12 14 C12 15.65 12 17.3 12 19 C9.69 18.67 7.38 18.34 5 18 C5.37253906 18.60328125 5.74507813 19.2065625 6.12890625 19.828125 C6.60199219 20.62734375 7.07507813 21.4265625 7.5625 22.25 C8.03816406 23.03890625 8.51382813 23.8278125 9.00390625 24.640625 C10 27 10 27 9.84375 29.03125 C8.82758283 31.40230672 7.52750424 33.22020736 5.9375 35.25 C5.38964844 35.95640625 4.84179688 36.6628125 4.27734375 37.390625 C3.85582031 37.92171875 3.43429688 38.4528125 3 39 C-1.04565244 31.77562065 -1.29033779 25.02921067 -1.1875 16.9375 C-1.18685547 15.97005859 -1.18621094 15.00261719 -1.18554688 14.00585938 C-1.1561371 9.23167229 -0.98915056 4.69253027 0 0 Z " fill="currentColor" transform="translate(71,70)"/>
<path d="M0 0 C1.89701385 -0.00135136 3.79402736 -0.00329579 5.69104004 -0.00579834 C9.6444838 -0.00872746 13.59783646 -0.00452383 17.55126953 0.00488281 C22.5806224 0.01627594 27.60976169 0.00970451 32.63910675 -0.00226212 C36.5496782 -0.00954088 40.46020026 -0.00716538 44.37077332 -0.00200653 C46.22364834 -0.00068661 48.07652807 -0.00225853 49.92939758 -0.00696564 C77.54008465 -0.06174155 77.54008465 -0.06174155 85.09375 4.265625 C85.47644172 13.43605241 85.79140388 21.64355766 79.84375 29.078125 C71.74554474 35.51987918 63.72351118 37.62217747 53.53125 37.640625 C52.81517578 37.66511719 52.09910156 37.68960938 51.36132812 37.71484375 C43.77662751 37.75625249 39.09995907 34.27589187 33.28125 29.578125 C29.14346582 26.25222963 26.41307889 24.58320914 20.875 24.57421875 C15.75976524 25.84584312 11.96483257 29.54724079 8.01171875 32.8828125 C3.00163197 36.97404802 -0.29724811 37.58677738 -6.71875 37.515625 C-7.40517578 37.52335937 -8.09160156 37.53109375 -8.79882812 37.5390625 C-13.47958446 37.52134914 -17.42410794 36.73987173 -21.90625 35.265625 C-23.00646484 34.93111328 -23.00646484 34.93111328 -24.12890625 34.58984375 C-29.4244896 32.75718964 -34.06106527 30.53125383 -36.94140625 25.43359375 C-39.66193224 18.61329836 -39.18364082 11.48806014 -38.90625 4.265625 C-26.90840238 -0.99987832 -12.83937274 -0.03261771 0 0 Z " fill="currentColor" transform="translate(108.90625,109.734375)"/>
</svg>
